<?xml version="1.0" encoding="iso-8859-1"?>
<!-- Generator: Adobe Illustrator 16.0.0, SVG Export Plug-In . SVG Version: 6.00 Build 0)  -->
<!DOCTYPE svg PUBLIC "-//W3C//DTD SVG 1.1//EN" "http://www.w3.org/Graphics/SVG/1.1/DTD/svg11.dtd">
<svg version="1.1" id="Capa_1" xmlns="http://www.w3.org/2000/svg" xmlns:xlink="http://www.w3.org/1999/xlink" x="0px" y="0px"
	 width="511.626px" height="511.626px" viewBox="0 0 511.626 511.626" style="enable-background:new 0 0 511.626 511.626;"
	 xml:space="preserve" fill="#fff">
<g>
	<path d="M505.918,267.239c-3.809-9.137-8.378-16.371-13.706-21.701L375.726,129.053c-2.854-2.856-6.283-5.52-10.28-7.994V27.415
		c0-7.616-2.663-14.092-7.994-19.417c-5.325-5.332-11.8-7.994-19.411-7.994H27.406c-7.611,0-14.084,2.663-19.414,7.994
		C2.663,13.326,0,19.799,0,27.415v383.72c0,7.61,2.663,14.079,7.992,19.403c5.33,5.332,11.803,7.994,19.414,7.994h155.318v45.683
		c0,7.614,2.662,14.089,7.992,19.414c5.327,5.331,11.8,7.994,19.414,7.994h274.091c7.61,0,14.085-2.663,19.41-7.994
		c5.332-5.325,7.994-11.8,7.994-19.414v-191.86C511.626,284.744,509.724,276.37,505.918,267.239z M365.446,170.449l85.369,85.364
		h-85.369V170.449z M82.224,73.088c-2.474,0-4.615-0.903-6.423-2.712c-1.807-1.809-2.712-3.946-2.712-6.423V45.682
		c0-2.474,0.905-4.617,2.712-6.423c1.809-1.809,3.949-2.712,6.423-2.712h201.001c2.471,0,4.612,0.903,6.42,2.712
		c1.807,1.807,2.717,3.949,2.717,6.423v18.271c0,2.478-0.913,4.615-2.717,6.423c-1.808,1.809-3.949,2.712-6.427,2.712H82.224z
		 M475.078,475.085H219.263V146.177h109.641v118.777c0,7.61,2.662,14.082,7.994,19.41c5.325,5.328,11.793,7.99,19.41,7.99h118.77
		V475.085L475.078,475.085z"/>
</g>
<g>
</g>
<g>
</g>
<g>
</g>
<g>
</g>
<g>
</g>
<g>
</g>
<g>
</g>
<g>
</g>
<g>
</g>
<g>
</g>
<g>
</g>
<g>
</g>
<g>
</g>
<g>
</g>
<g>
</g>
</svg>
